<?xml version="1.0" encoding="UTF-8" standalone="no"?>
<!-- Created with Inkscape (http://www.inkscape.org/) -->

<svg
   width="374mm"
   height="110mm"
   viewBox="0 0 374 110"
   version="1.1"
   id="svg5"
   inkscape:version="1.1.2 (0a00cf5339, 2022-02-04, custom)"
   sodipodi:docname="text.svg"
   xmlns:inkscape="http://www.inkscape.org/namespaces/inkscape"
   xmlns:sodipodi="http://sodipodi.sourceforge.net/DTD/sodipodi-0.dtd"
   xmlns="http://www.w3.org/2000/svg"
   xmlns:svg="http://www.w3.org/2000/svg">
  <sodipodi:namedview
     id="namedview7"
     pagecolor="#ffffff"
     bordercolor="#666666"
     borderopacity="1.0"
     inkscape:pageshadow="2"
     inkscape:pageopacity="0.0"
     inkscape:pagecheckerboard="0"
     inkscape:document-units="mm"
     showgrid="false"
     width="300mm"
     inkscape:zoom="0.52347032"
     inkscape:cx="667.65963"
     inkscape:cy="185.30181"
     inkscape:window-width="1920"
     inkscape:window-height="1017"
     inkscape:window-x="-8"
     inkscape:window-y="-8"
     inkscape:window-maximized="1"
     inkscape:current-layer="g845" />
  <defs
     id="defs2">
    <rect
       x="482.2377"
       y="89.153191"
       width="125.62495"
       height="28.366924"
       id="rect18190" />
    <rect
       x="367.41919"
       y="60.786266"
       width="725.38275"
       height="320.14099"
       id="rect15934" />
    <rect
       x="378.22565"
       y="45.927399"
       width="733.48761"
       height="337.70148"
       id="rect4224" />
    <rect
       x="403.89096"
       y="85.100769"
       width="724.03192"
       height="324.19342"
       id="rect4263" />
  </defs>
  <g
     inkscape:label="Layer 1"
     inkscape:groupmode="layer"
     id="layer1">
    <g
       id="g845"
       transform="translate(-79.65293,-92.053627)">
      <g
         id="g856"
         transform="matrix(0.4808856,0,0,0.4808856,73.772482,81.620735)">
        <g
           inkscape:label="Layer 1"
           id="layer1-1">
          <path
             style="color:#000000;fill:#000000;stroke-width:0.264583;stroke-linecap:round;stroke-linejoin:round;-inkscape-stroke:none;paint-order:stroke fill markers"
             d="M 34.684386,83.695356 A 16.50165,16.50165 0 0 0 20.394819,108.44527 L 94.410973,236.6452 a 16.50165,16.50165 0 0 0 28.579137,0 L 197.00626,108.44527 A 16.50165,16.50165 0 0 0 182.71669,83.695356 Z M 63.26352,116.69542 h 90.87456 l -45.43754,78.69959 z"
             id="path1971-2" />
        </g>
        <g
           id="layer2"
           inkscape:label="snek">
          <path
             style="fill:#3366cc;stroke:#000000;stroke-width:5;stroke-linecap:round;stroke-linejoin:round;stroke-miterlimit:4;stroke-dasharray:none;stroke-opacity:1"
             d="m 178.47192,154.26394 c -15.47062,-2.84961 -27.49329,-9.9199 -35.58248,-18.08543 -8.08919,-8.16553 -14.38585,-16.66355 -14.47425,-29.43343 -0.0884,-12.769884 6.86274,-28.542334 6.86274,-28.542334 0,0 -9.93543,1.492218 -17.56998,-1.272057 -13.80789,-4.999484 -23.275847,-21.210078 -23.275847,-21.210078 0,0 13.143817,-19.844826 28.686127,-20.097545 15.54231,-0.252722 32.33155,11.358634 38.81193,22.905125 7.06919,12.595624 0.3886,25.484882 -0.56971,32.08746 -0.77988,5.373266 -2.08768,16.054319 2.7782,21.980049 4.33306,5.27685 11.83853,10.02954 22.67583,13.50227 10.8373,3.47273 22.56004,22.40848 12.02663,43.59638 -9.90605,19.92597 -43.58004,11.05582 -43.58004,11.05582 l 15.58717,-26.99782 z"
             id="path3851"
             sodipodi:nodetypes="czzcsccssszsccc" />
        </g>
        <g
           id="layer3"
           inkscape:label="snek bottom">
          <path
             style="fill:#99cc33;stroke:#000000;stroke-width:5;stroke-linecap:round;stroke-linejoin:round;stroke-miterlimit:4;stroke-dasharray:none;stroke-opacity:1"
             d="m 119.09625,177.38924 c 9.07974,6.49426 22.45532,13.4762 27.78606,17.87339 5.33074,4.3972 4.10523,16.68041 -9.234,22.15358 0,0 10.64702,5.71441 19.57549,0.47187 9.0812,-5.33221 14.37834,-10.82404 14.94635,-20.84953 0.568,-10.0255 -2.16668,-17.76658 -11.53612,-25.59464 -9.36944,-7.82806 -20.87787,-17.96349 -33.01697,-23.6209 l 6.50453,3.54175 8.76785,-15.18625 c -9.44171,-7.71274 -28.60146,-7.92823 -35.63857,8.14942 -7.03711,16.07766 2.76564,26.56705 11.84538,33.06131 z"
             id="path2468"
             sodipodi:nodetypes="zzcszzccczz" />
        </g>
        <g
           id="layer4"
           inkscape:label="hair"
           style="display:inline">
          <path
             style="fill:#ffcc00;stroke:#000000;stroke-width:5;stroke-linecap:butt;stroke-linejoin:round;stroke-miterlimit:4;stroke-dasharray:none;stroke-opacity:1"
             d="m 136.24564,37.950839 c 6.35619,7.794013 -2.06756,15.74161 10.06973,20.344989 15.40119,5.841296 5.77226,30.447413 -2.70752,45.174442 44.95157,-18.170047 33.18411,-69.733886 6.83873,-73.694493 C 124.1012,25.81517 116.59351,36.8304 116.59351,36.8304 Z"
             id="path20898"
             sodipodi:nodetypes="csczcc" />
          <circle
             style="fill:#000000;fill-opacity:1;stroke:#000000;stroke-width:3.7495;stroke-linecap:round;stroke-linejoin:round;stroke-miterlimit:4;stroke-dasharray:none;stroke-opacity:1;paint-order:stroke fill markers"
             id="path25419"
             cy="49.523243"
             cx="122.39795"
             r="3.520556" />
        </g>
      </g>
      <text
         xml:space="preserve"
         transform="matrix(0.26458333,0,0,0.26458333,79.65293,92.053627)"
         id="text4261"
         style="font-size:12px;line-height:1.25;font-family:'Times New Roman';-inkscape-font-specification:'Times New Roman, ';white-space:pre;shape-inside:url(#rect4263)" />
      <text
         xml:space="preserve"
         transform="matrix(0.26458333,0,0,0.26458333,79.65293,92.053627)"
         id="text4222"
         style="font-style:normal;font-variant:normal;font-weight:normal;font-stretch:normal;font-size:136.063px;line-height:1.25;font-family:Comfortaa;-inkscape-font-specification:Comfortaa;white-space:pre;shape-inside:url(#rect4224)" />
      <g
         aria-label="maligrad"
         transform="matrix(0.43085419,0,0,0.43085419,15.611967,92.135759)"
         id="text15932"
         style="font-size:136.063px;font-family:'Times New Roman';-inkscape-font-specification:'Times New Roman, ';white-space:pre;stroke-width:3.24935914;stroke-miterlimit:4;stroke-dasharray:none;stroke:#000000;stroke-opacity:1">
        <path
           d="m 477.35883,185.43913 q -2.99339,0 -5.03433,-1.90489 -1.90488,-2.04094 -1.90488,-5.03433 v -38.91402 q 0,-8.57197 -4.21796,-12.65386 -4.21795,-4.21795 -11.0211,-4.21795 -7.07528,0 -11.70142,4.89827 -4.49008,4.89827 -4.49008,12.51779 h -11.29323 q 0,-8.84409 3.80977,-15.51118 3.80976,-6.80315 10.61291,-10.61291 6.93921,-3.80977 15.78331,-3.80977 7.75559,0 13.74236,3.40158 5.98677,3.40157 9.25229,10.06866 3.40157,6.53103 3.40157,15.91937 v 38.91402 q 0,2.99339 -1.90488,5.03433 -1.90488,1.90489 -5.03433,1.90489 z m -90.75402,0 q -2.99339,0 -5.03434,-1.90489 -1.90488,-2.04094 -1.90488,-5.03433 v -60.54803 q 0,-3.12945 1.90488,-5.03434 2.04095,-1.90488 5.03434,-1.90488 3.12944,0 5.03433,1.90488 1.90488,1.90489 1.90488,5.03434 v 60.54803 q 0,2.99339 -1.90488,5.03433 -1.90489,1.90489 -5.03433,1.90489 z m 45.44504,0 q -2.99339,0 -5.03433,-1.90489 -1.90488,-2.04094 -1.90488,-5.03433 v -38.91402 q 0,-8.57197 -4.21796,-12.65386 -4.21795,-4.21795 -11.0211,-4.21795 -7.07528,0 -11.70142,4.89827 -4.62614,4.89827 -4.62614,12.51779 h -8.57197 q 0,-8.84409 3.53764,-15.51118 3.53764,-6.80315 9.79653,-10.61291 6.2589,-3.80977 14.28662,-3.80977 7.75559,0 13.74236,3.40158 5.98677,3.40157 9.25229,10.06866 3.40157,6.53103 3.40157,15.91937 v 38.91402 q 0,2.99339 -1.90488,5.03433 -1.90488,1.90489 -5.03433,1.90489 z"
           style="-inkscape-font-specification:'Comfortaa, @wght=700';stroke-width:3.24935914;stroke-miterlimit:4;stroke-dasharray:none;stroke:#000000;stroke-opacity:1"
           id="path842" />
        <path
           d="m 538.31502,185.84731 q -9.9326,0 -17.82426,-4.89826 -7.89165,-5.03434 -12.51779,-13.47024 -4.49008,-8.57197 -4.49008,-19.32095 0,-10.74898 4.89827,-19.32094 5.03433,-8.57197 13.47023,-13.47024 8.57197,-5.03433 19.18489,-5.03433 10.61291,0 19.04882,5.03433 8.4359,4.89827 13.33417,13.47024 5.03433,8.57196 5.03433,19.32094 h -5.30645 q 0,10.74898 -4.62615,19.32095 -4.49008,8.4359 -12.38173,13.47024 -7.89165,4.89826 -17.82425,4.89826 z m 2.72126,-12.24567 q 6.93921,0 12.38173,-3.26551 5.44252,-3.40157 8.57197,-9.11622 3.12945,-5.85071 3.12945,-13.06205 0,-7.3474 -3.12945,-13.06205 -3.12945,-5.85071 -8.57197,-9.11622 -5.44252,-3.40157 -12.38173,-3.40157 -6.80315,0 -12.38174,3.40157 -5.44252,3.26551 -8.70803,9.11622 -3.12945,5.71465 -3.12945,13.06205 0,7.21134 3.12945,13.06205 3.26551,5.71465 8.70803,9.11622 5.57859,3.26551 12.38174,3.26551 z m 30.47811,11.83749 q -2.99339,0 -5.03433,-1.90489 -1.90488,-2.04094 -1.90488,-5.03433 v -20.81764 l 2.58519,-14.42268 11.29323,4.89827 v 30.34205 q 0,2.99339 -2.04094,5.03433 -1.90488,1.90489 -4.89827,1.90489 z"
           style="-inkscape-font-specification:'Comfortaa, @wght=700';stroke-width:3.24935914;stroke-miterlimit:4;stroke-dasharray:none;stroke:#000000;stroke-opacity:1"
           id="path844" />
        <path
           d="m 616.82327,185.30306 q -5.98678,0 -10.61292,-3.26551 -4.62614,-3.26551 -7.21134,-8.8441 -2.5852,-5.71464 -2.5852,-13.06204 V 85.841006 q 0,-2.993386 1.90489,-4.898268 1.90488,-1.904882 4.89826,-1.904882 2.99339,0 4.89827,1.904882 1.90488,1.904882 1.90488,4.898268 v 74.290404 q 0,5.03433 1.90489,8.29984 1.90488,3.26551 4.89827,3.26551 h 3.40157 q 2.72126,0 4.35402,1.90488 1.76882,1.90489 1.76882,4.89827 0,2.99339 -2.5852,4.89827 -2.5852,1.90488 -6.66709,1.90488 z"
           style="-inkscape-font-specification:'Comfortaa, @wght=700';stroke-width:3.24935914;stroke-miterlimit:4;stroke-dasharray:none;stroke:#000000;stroke-opacity:1"
           id="path846" />
        <path
           d="m 648.2537,185.30306 q -2.99338,0 -5.03433,-1.90488 -1.90488,-2.04095 -1.90488,-5.03433 v -60.54804 q 0,-3.12945 1.90488,-5.03433 2.04095,-1.90488 5.03433,-1.90488 3.12945,0 5.03434,1.90488 1.90488,1.90488 1.90488,5.03433 v 60.54804 q 0,2.99338 -1.90488,5.03433 -1.90489,1.90488 -5.03434,1.90488 z m 0,-86.536068 q -3.6737,0 -6.39496,-2.585197 -2.58519,-2.72126 -2.58519,-6.394961 0,-3.673702 2.58519,-6.258899 2.72126,-2.72126 6.39496,-2.72126 3.67371,0 6.2589,2.72126 2.72126,2.585197 2.72126,6.258899 0,3.673701 -2.72126,6.394961 -2.58519,2.585197 -6.2589,2.585197 z"
           style="-inkscape-font-specification:'Comfortaa, @wght=700';stroke-width:3.24935914;stroke-miterlimit:4;stroke-dasharray:none;stroke:#000000;stroke-opacity:1"
           id="path848" />
        <path
           d="m 712.06726,185.84731 q -10.20473,0 -18.09638,-4.7622 -7.75559,-4.89827 -12.24567,-13.33418 -4.49008,-8.57196 -4.49008,-19.59307 0,-11.15716 4.76221,-19.59307 4.89826,-8.57197 13.33417,-13.33417 8.43591,-4.89827 19.45701,-4.89827 10.88504,0 19.32095,4.89827 8.4359,4.7622 13.19811,13.33417 4.89827,8.43591 4.89827,19.59307 h -8.02772 q 0,11.02111 -4.21795,19.59307 -4.08189,8.43591 -11.29323,13.33418 -7.21134,4.7622 -16.59969,4.7622 z m 2.44913,30.34205 q -9.66047,0 -18.09638,-3.80976 -8.4359,-3.80976 -14.28661,-11.15717 -1.76882,-2.31307 -1.36063,-4.7622 0.54425,-2.44914 2.72126,-3.94583 2.44913,-1.63275 5.03433,-1.0885 2.72126,0.54425 4.35402,2.72126 3.6737,4.62614 9.25228,7.21134 5.57858,2.58519 12.65386,2.58519 6.53102,0 11.97354,-3.12945 5.57859,-3.12944 8.8441,-9.25228 3.26551,-6.12283 3.26551,-14.96693 v -19.32095 l 4.49008,-11.97354 8.8441,2.85732 v 29.38961 q 0,10.74898 -4.76221,19.45701 -4.7622,8.8441 -13.33417,14.01449 -8.43591,5.17039 -19.59308,5.17039 z m 0.27213,-42.58772 q 7.07528,0 12.5178,-3.26551 5.44252,-3.26551 8.4359,-8.98016 3.12945,-5.71464 3.12945,-13.19811 0,-7.48346 -3.12945,-13.19811 -2.99338,-5.85071 -8.4359,-9.11622 -5.44252,-3.26551 -12.5178,-3.26551 -7.07528,0 -12.5178,3.26551 -5.44252,3.26551 -8.57197,9.11622 -3.12944,5.71465 -3.12944,13.19811 0,7.48347 3.12944,13.19811 3.12945,5.71465 8.57197,8.98016 5.44252,3.26551 12.5178,3.26551 z"
           style="-inkscape-font-specification:'Comfortaa, @wght=700';stroke-width:3.24935914;stroke-miterlimit:4;stroke-dasharray:none;stroke:#000000;stroke-opacity:1"
           id="path850" />
        <path
           d="m 779.55442,138.76951 q 0,-8.16378 3.94583,-14.55874 4.08189,-6.53102 10.88504,-10.34078 6.80315,-3.80977 14.96693,-3.80977 8.16378,0 12.10961,2.72126 4.08189,2.5852 3.12944,6.2589 -0.40818,1.90488 -1.63275,2.99339 -1.08851,0.95244 -2.5852,1.22456 -1.49669,0.27213 -3.26551,-0.13606 -8.70803,-1.76882 -15.64725,-0.27213 -6.93921,1.4967 -11.0211,5.57859 -3.94583,4.08189 -3.94583,10.34078 z m 0.13606,46.53355 q -3.26551,0 -5.03433,-1.63275 -1.76882,-1.76882 -1.76882,-5.1704 v -60.82016 q 0,-3.26551 1.76882,-5.03433 1.76882,-1.76882 5.03433,-1.76882 3.40158,0 5.03433,1.76882 1.76882,1.63275 1.76882,5.03433 v 60.82016 q 0,3.26551 -1.76882,5.03433 -1.63275,1.76882 -5.03433,1.76882 z"
           style="-inkscape-font-specification:'Comfortaa, @wght=700';stroke-width:3.24935914;stroke-miterlimit:4;stroke-dasharray:none;stroke:#000000;stroke-opacity:1"
           id="path852" />
        <path
           d="m 864.59369,185.84731 q -9.9326,0 -17.82426,-4.89826 -7.89165,-5.03434 -12.51779,-13.47024 -4.49008,-8.57197 -4.49008,-19.32095 0,-10.74898 4.89827,-19.32094 5.03433,-8.57197 13.47023,-13.47024 8.57197,-5.03433 19.18489,-5.03433 10.61291,0 19.04882,5.03433 8.4359,4.89827 13.33417,13.47024 5.03433,8.57196 5.03433,19.32094 h -5.30645 q 0,10.74898 -4.62615,19.32095 -4.49007,8.4359 -12.38173,13.47024 -7.89165,4.89826 -17.82425,4.89826 z m 2.72126,-12.24567 q 6.93921,0 12.38173,-3.26551 5.44252,-3.40157 8.57197,-9.11622 3.12945,-5.85071 3.12945,-13.06205 0,-7.3474 -3.12945,-13.06205 -3.12945,-5.85071 -8.57197,-9.11622 -5.44252,-3.40157 -12.38173,-3.40157 -6.80315,0 -12.38174,3.40157 -5.44252,3.26551 -8.70803,9.11622 -3.12945,5.71465 -3.12945,13.06205 0,7.21134 3.12945,13.06205 3.26551,5.71465 8.70803,9.11622 5.57859,3.26551 12.38174,3.26551 z m 30.47811,11.83749 q -2.99339,0 -5.03433,-1.90489 -1.90488,-2.04094 -1.90488,-5.03433 v -20.81764 l 2.58519,-14.42268 11.29323,4.89827 v 30.34205 q 0,2.99339 -2.04094,5.03433 -1.90488,1.90489 -4.89827,1.90489 z"
           style="-inkscape-font-specification:'Comfortaa, @wght=700';stroke-width:3.24935914;stroke-miterlimit:4;stroke-dasharray:none;stroke:#000000;stroke-opacity:1"
           id="path854" />
        <path
           d="m 959.15739,185.84731 q -10.61292,0 -19.18489,-4.89826 -8.4359,-5.03434 -13.47023,-13.6063 -4.89827,-8.57197 -4.89827,-19.32095 0,-10.74898 4.49008,-19.18488 4.62614,-8.57197 12.51779,-13.47024 7.89166,-5.03433 17.82426,-5.03433 8.02771,0 14.83086,3.40157 6.80315,3.26551 11.4293,8.98016 V 85.977069 q 0,-3.129449 1.90488,-5.034331 2.04094,-1.904882 5.03433,-1.904882 3.12945,0 5.03433,1.904882 1.90488,1.904882 1.90488,5.034331 V 148.0218 q 0,10.74898 -5.03433,19.32095 -4.89827,8.57196 -13.33417,13.6063 -8.43591,4.89826 -19.04882,4.89826 z m 0,-12.24567 q 6.93921,0 12.38173,-3.26551 5.44252,-3.40157 8.57197,-9.25228 3.12945,-5.85071 3.12945,-13.06205 0,-7.3474 -3.12945,-13.06205 -3.12945,-5.71465 -8.57197,-8.98016 -5.44252,-3.40157 -12.38173,-3.40157 -6.80315,0 -12.38174,3.40157 -5.44252,3.26551 -8.70803,8.98016 -3.12945,5.71465 -3.12945,13.06205 0,7.21134 3.12945,13.06205 3.26551,5.85071 8.70803,9.25228 5.57859,3.26551 12.38174,3.26551 z"
           style="-inkscape-font-specification:'Comfortaa, @wght=700';stroke-width:3.24935914;stroke-miterlimit:4;stroke-dasharray:none;stroke:#000000;stroke-opacity:1"
           id="path856" />
      </g>
      <text
         xml:space="preserve"
         transform="matrix(0.26458333,0,0,0.26458333,79.65293,92.053627)"
         id="text18188"
         style="font-size:12px;line-height:1.25;font-family:'Times New Roman';-inkscape-font-specification:'Times New Roman, ';white-space:pre;shape-inside:url(#rect18190)" />
    </g>
  </g>
</svg>
